<svg xmlns="http://www.w3.org/2000/svg" viewBox="0 0 1200 630" width="1200" height="630">
  <defs>
    <linearGradient id="bg" x1="0" y1="0" x2="1" y2="1">
      <stop offset="0%" stop-color="#0f1f17"/>
      <stop offset="55%" stop-color="#1c3a2c"/>
      <stop offset="100%" stop-color="#0a140f"/>
    </linearGradient>
    <radialGradient id="glow" cx="0.78" cy="0.32" r="0.55">
      <stop offset="0%" stop-color="#34d39955"/>
      <stop offset="100%" stop-color="#34d39900"/>
    </radialGradient>
  </defs>
  <rect width="1200" height="630" fill="url(#bg)"/>
  <rect width="1200" height="630" fill="url(#glow)"/>

  <g transform="translate(820 130)">
    <path d="M 120 0 L 240 30 L 240 140 Q 240 220 120 280 Q 0 220 0 140 L 0 30 Z" fill="#fafaf9"/>
    <text x="120" y="80" font-family="sans-serif" font-size="14" font-weight="900" fill="#dc2626" text-anchor="middle">VERIFICATION</text>
    <line x1="40" y1="100" x2="200" y2="100" stroke="#e7e5e4" stroke-width="2"/>
    <text x="120" y="130" font-family="sans-serif" font-size="14" font-weight="900" fill="#dc2626" text-anchor="middle">CALIBRATION</text>
    <line x1="40" y1="150" x2="200" y2="150" stroke="#e7e5e4" stroke-width="2"/>
    <text x="120" y="180" font-family="sans-serif" font-size="14" font-weight="900" fill="#dc2626" text-anchor="middle">VALIDATION</text>
    <text x="120" y="240" font-family="sans-serif" font-size="11" fill="#34d399" text-anchor="middle">검증 3층 구조</text>
  </g>
  <text x="80" y="120" font-family="'Noto Sans KR',sans-serif" font-weight="700" font-size="22" fill="#34d399" letter-spacing="2">멀티에이전트 · 시뮬레이션</text>
  <text x="80" y="200" font-family="'Noto Sans KR',sans-serif" font-weight="900" font-size="52" fill="#fafaf9">멀티에이전트 시뮬레이션을 과학으로</text>
<text x="80" y="266" font-family="'Noto Sans KR',sans-serif" font-weight="900" font-size="52" fill="#fafaf9">쓰는</text>
<rect x="68" y="282" width="252" height="74" fill="#dc2626"/>
<text x="80" y="338" font-family="'Noto Sans KR',sans-serif" font-weight="900" font-size="56" fill="#fafaf9">5가지 의무</text>
  <text x="80" y="560" font-family="'Noto Sans KR',sans-serif" font-weight="600" font-size="22" fill="#a8a29e">임보람 · BDM Lab</text>
</svg>
